<svg width="58" height="53" viewBox="0 0 58 53" fill="none" xmlns="http://www.w3.org/2000/svg">
<path opacity="0.25" d="M3.47656 14.7266C3.75781 12.7578 4.25 10.9063 4.95312 9.17188C5.65625 7.39063 6.5 5.84375 7.48438 4.53125C8.46875 3.17188 9.52344 2.11719 10.6484 1.36719C11.8203 0.570313 12.9922 0.171875 14.1641 0.171875C16.3672 0.171875 18.5938 0.523438 20.8438 1.22656C23.0938 1.88281 24.875 3.03125 26.1875 4.67188C26.5625 5.1875 26.9141 5.82031 27.2422 6.57031C27.6172 7.27344 27.8984 8.16406 28.0859 9.24219C28.3203 10.2734 28.4375 11.5156 28.4375 12.9688C28.4844 14.4219 28.3672 16.1328 28.0859 18.1016C27.6641 20.9141 27.0547 23.6562 26.2578 26.3281C25.4609 28.9531 24.2188 31.625 22.5312 34.3438C20.8906 37.0625 18.6641 39.8984 15.8516 42.8516C13.0859 45.7578 9.52344 48.8984 5.16406 52.2734L0.453125 45.5234C3.125 43.5078 5.39844 41.6328 7.27344 39.8984C9.14844 38.1172 10.6719 36.4531 11.8438 34.9062C13.0625 33.3125 13.9766 31.8594 14.5859 30.5469C15.1953 29.1875 15.5703 27.9219 15.7109 26.75C15.8984 25.625 15.5938 24.7812 14.7969 24.2188C14 23.6094 12.9453 23.1172 11.6328 22.7422C8.96094 22.0391 6.875 20.9844 5.375 19.5781C3.875 18.125 3.24219 16.5078 3.47656 14.7266ZM32.7266 14.7266C33.0078 12.7578 33.5 10.9063 34.2031 9.17188C34.9062 7.39063 35.75 5.84375 36.7344 4.53125C37.7188 3.17188 38.7734 2.11719 39.8984 1.36719C41.0703 0.570313 42.2422 0.171875 43.4141 0.171875C45.6172 0.171875 47.8438 0.523438 50.0938 1.22656C52.3438 1.88281 54.125 3.03125 55.4375 4.67188C55.8125 5.1875 56.1641 5.82031 56.4922 6.57031C56.8672 7.27344 57.1484 8.16406 57.3359 9.24219C57.5703 10.2734 57.6875 11.5156 57.6875 12.9688C57.7344 14.4219 57.6172 16.1328 57.3359 18.1016C56.9141 20.9141 56.3047 23.6562 55.5078 26.3281C54.7109 28.9531 53.4688 31.625 51.7812 34.3438C50.1406 37.0625 47.9141 39.8984 45.1016 42.8516C42.3359 45.7578 38.7734 48.8984 34.4141 52.2734L29.6328 45.5234C32.3047 43.5078 34.5781 41.6328 36.4531 39.8984C38.3281 38.1172 39.875 36.4531 41.0938 34.9062C42.3125 33.3125 43.2266 31.8594 43.8359 30.5469C44.4453 29.1875 44.8203 27.9219 44.9609 26.75C45.1484 25.625 44.8438 24.7812 44.0469 24.2188C43.25 23.6094 42.1953 23.1172 40.8828 22.7422C38.2109 22.0391 36.125 20.9844 34.625 19.5781C33.125 18.125 32.4922 16.5078 32.7266 14.7266Z" fill="#F4F4ED"/>
</svg>
